<svg xmlns="http://www.w3.org/2000/svg" width="17.576" height="18.308" viewBox="0 0 17.576 18.308">
  <path id="Icon_material-add-shopping-cart" data-name="Icon material-add-shopping-cart" d="M9.8,8.058h1.744V5.442H14.16V3.7H11.545V1.083H9.8V3.7H7.186V5.442H9.8ZM6.314,15.9a1.744,1.744,0,1,0,1.744,1.744A1.741,1.741,0,0,0,6.314,15.9Zm8.718,0a1.744,1.744,0,1,0,1.744,1.744A1.741,1.741,0,0,0,15.032,15.9Zm-8.57-2.833.026-.1.785-1.421h6.495a1.735,1.735,0,0,0,1.526-.9l3.365-6.111L17.142,3.7h-.009l-.959,1.744L13.768,9.8H7.648l-.113-.235L5.582,5.442,4.754,3.7,3.934,1.955H1.083V3.7H2.827l3.139,6.617L4.789,12.452a1.686,1.686,0,0,0-.218.837,1.749,1.749,0,0,0,1.744,1.744H16.776V13.289H6.68a.221.221,0,0,1-.218-.218Z" transform="translate(-1.083 -1.083)" fill="#fff"/>
</svg>
